# xmcd
#
# Track frame offsets: 
#        150
#        15072
#        27723
#        58296
#        77182
#        92804
#        114326
#        141643
#        166511
#        185642
#        201349
#        225401
#
# Disc length: 3253 seconds
#
# Revision: 0
# Processed by: cddbd v1.5.2PL0 Copyright (c) Steve Scherf et al.
# Submitted via: ExactAudioCopy v0.90b4
#
DISCID=9d0cb30c
DTITLE=Becki Sue and Her Big Rockin' Daddies! - Big City Blues
DYEAR=2007
DGENRE=Blues
TTITLE0=You're Killin' Me
TTITLE1=Farmer John
TTITLE2=The Sun Is Shining
TTITLE3=Pardon Me
TTITLE4=I Get Evil
TTITLE5=Tell Me Why
TTITLE6=Soul Serenade
TTITLE7=Big City Blues
TTITLE8=If You Let Me Call You Sweetheart
TTITLE9=Maybe
TTITLE10=Cut you Loose
TTITLE11=Backstroke
EXTD=
EXTT0=
EXTT1=
EXTT2=
EXTT3=
EXTT4=
EXTT5=
EXTT6=
EXTT7=
EXTT8=
EXTT9=
EXTT10=
EXTT11=
PLAYORDER=
